<svg id="svg-chats" viewBox="0 0 89 89" fill="none" xmlns="http://www.w3.org/2000/svg">
<path d="M11.8548 48.9153C8.7376 43.6635 7.64499 37.4542 8.7822 31.4538C9.9194 25.4533 13.2082 20.0745 18.0309 16.3274C22.8536 12.5804 28.8784 10.723 34.9738 11.104C41.0691 11.4851 46.8157 14.0784 51.1342 18.3969C55.4527 22.7154 58.046 28.4619 58.427 34.5573C58.8081 40.6527 56.9506 46.6775 53.2036 51.5002C49.4566 56.3229 44.0777 59.6116 38.0773 60.7489C32.0768 61.8861 25.8676 60.7934 20.6158 57.6762L11.9591 60.1446C11.6025 60.2448 11.2255 60.2483 10.8671 60.1546C10.5086 60.0609 10.1816 59.8734 9.91958 59.6115C9.6576 59.3495 9.47012 59.0224 9.37642 58.664C9.28273 58.3055 9.2862 57.9286 9.38648 57.5719L11.8548 48.9153Z" stroke="currentColor" stroke-width="4" stroke-linecap="round" stroke-linejoin="round"/>
<path d="M32.019 61.1526C33.2443 64.6461 35.2303 67.8237 37.8335 70.456C40.4366 73.0883 43.592 75.1095 47.0716 76.3736C50.5511 77.6377 54.2681 78.1131 57.9538 77.7655C61.6395 77.4179 65.202 76.2559 68.3839 74.3636V74.3636L77.0405 76.8319C77.3972 76.9322 77.7742 76.9357 78.1326 76.842C78.4911 76.7483 78.8181 76.5608 79.0801 76.2988C79.3421 76.0368 79.5295 75.7098 79.6232 75.3514C79.7169 74.9929 79.7135 74.616 79.6132 74.2593L77.1448 65.6026C79.3485 61.9036 80.5593 57.6981 80.66 53.3936C80.7606 49.0891 79.7477 44.8316 77.7193 41.0336C75.6909 37.2356 72.7159 34.026 69.0825 31.7157C65.4491 29.4055 61.2805 28.0729 56.9808 27.8472" stroke="currentColor" stroke-width="4" stroke-linecap="round" stroke-linejoin="round"/>
</svg>
