<svg id="svg-people" viewBox="0 0 89 89" fill="none" xmlns="http://www.w3.org/2000/svg">
<path d="M44.5 62.5781C52.1802 62.5781 58.4062 56.3521 58.4062 48.6719C58.4062 40.9917 52.1802 34.7656 44.5 34.7656C36.8198 34.7656 30.5938 40.9917 30.5938 48.6719C30.5938 56.3521 36.8198 62.5781 44.5 62.5781Z" stroke="currentColor" stroke-width="4" stroke-linecap="round" stroke-linejoin="round"/>
<path d="M68.1406 40.3282C71.3799 40.3227 74.5756 41.0743 77.4729 42.523C80.3702 43.9716 82.8889 46.0772 84.8281 48.6719" stroke="currentColor" stroke-width="4" stroke-linecap="round" stroke-linejoin="round"/>
<path d="M4.17188 48.6719C6.1111 46.0772 8.6298 43.9716 11.5271 42.523C14.4244 41.0743 17.6201 40.3227 20.8594 40.3282" stroke="currentColor" stroke-width="4" stroke-linecap="round" stroke-linejoin="round"/>
<path d="M24.4751 75.0936C26.3066 71.3427 29.1548 68.1816 32.6952 65.9705C36.2356 63.7593 40.3259 62.5869 44.5001 62.5869C48.6743 62.5869 52.7646 63.7593 56.305 65.9705C59.8454 68.1816 62.6936 71.3427 64.5251 75.0936" stroke="currentColor" stroke-width="4" stroke-linecap="round" stroke-linejoin="round"/>
<path d="M20.8594 40.3281C18.7479 40.3303 16.6794 39.7314 14.8956 38.6017C13.1117 37.4719 11.6863 35.8577 10.7857 33.9479C9.88515 32.038 9.54671 29.9113 9.80993 27.8163C10.0731 25.7212 10.9272 23.7444 12.2722 22.1167C13.6172 20.4889 15.3976 19.2776 17.4055 18.6242C19.4134 17.9708 21.5658 17.9023 23.6111 18.4267C25.6565 18.9511 27.5104 20.0468 28.9562 21.5856C30.4019 23.1245 31.3799 25.0431 31.7758 27.1172" stroke="currentColor" stroke-width="4" stroke-linecap="round" stroke-linejoin="round"/>
<path d="M57.2241 27.1172C57.62 25.0431 58.598 23.1245 60.0438 21.5856C61.4896 20.0468 63.3435 18.9511 65.3888 18.4267C67.4342 17.9023 69.5866 17.9708 71.5945 18.6242C73.6023 19.2776 75.3828 20.4889 76.7278 22.1167C78.0728 23.7444 78.9268 25.7212 79.19 27.8163C79.4533 29.9113 79.1148 32.038 78.2143 33.9479C77.3137 35.8577 75.8882 37.4719 74.1044 38.6017C72.3206 39.7314 70.252 40.3303 68.1405 40.3281" stroke="currentColor" stroke-width="4" stroke-linecap="round" stroke-linejoin="round"/>
</svg>
