<svg id="svg-telegram" viewBox="0 0 16 16" fill="currentColor" xmlns="http://www.w3.org/2000/svg">
<path d="M14.9415 1.11339L0.602218 6.73111C-0.181764 6.96654 -0.156475 7.7644 0.425189 7.96059L4.01634 9.11814L5.39463 13.4802C5.55901 13.9576 5.69811 14.1342 5.98262 14.1407C6.27977 14.1473 6.39357 14.0296 6.7097 13.7483C7.07008 13.3952 7.62645 12.8328 8.50527 11.9499L12.2418 14.8078C12.931 15.2002 13.4305 14.9974 13.6012 14.1473L15.9405 2.15977C16.1934 1.11339 15.599 0.806021 14.9415 1.11339V1.11339ZM4.57903 8.85001L12.7476 3.55275C13.1523 3.27154 13.2787 3.58545 13.0954 3.80126L6.3177 10.1057L5.96997 13.2579L4.57903 8.85001Z" />
</svg>
