<svg id="svg-location" viewBox="0 0 18 18" fill="none" xmlns="http://www.w3.org/2000/svg">
<path d="M9.375 5.28111C9.25305 5.26065 9.12777 5.25 9 5.25C7.75736 5.25 6.75 6.25736 6.75 7.5C6.75 8.74264 7.75736 9.75 9 9.75C10.2426 9.75 11.25 8.74264 11.25 7.5C11.25 7.37223 11.2394 7.24695 11.2189 7.125" stroke="currentColor" stroke-width="1.5" stroke-linecap="round"/>
<path d="M3.75 11.4121C3.2644 10.1717 3 8.851 3 7.60747C3 4.23441 5.68629 1.5 9 1.5C12.3137 1.5 15 4.23441 15 7.60747C15 10.9541 13.085 14.8593 10.0972 16.2558C9.40069 16.5814 8.59931 16.5814 7.9028 16.2558C6.94855 15.8098 6.10373 15.1079 5.39578 14.25" stroke="currentColor" stroke-width="1.5" stroke-linecap="round"/>
</svg>
