<svg id="svg-shop" viewBox="0 0 18 18" fill="none" xmlns="http://www.w3.org/2000/svg">
<path d="M7.125 16.125V13.875C7.125 13.174 7.125 12.8236 7.27572 12.5625C7.37446 12.3915 7.51648 12.2495 7.6875 12.1507C7.94856 12 8.29904 12 9 12C9.70096 12 10.0514 12 10.3125 12.1507C10.4835 12.2495 10.6255 12.3915 10.7243 12.5625C10.875 12.8236 10.875 13.174 10.875 13.875V16.125" stroke="currentColor" stroke-width="1.5" stroke-linecap="round"/>
<path d="M15.75 16.5H6.75M2.25 16.5H4.125" stroke="currentColor" stroke-width="1.5" stroke-linecap="round"/>
<path d="M14.25 16.5V11.25" stroke="currentColor" stroke-width="1.5" stroke-linecap="round"/>
<path d="M3.75 16.5V11.25" stroke="currentColor" stroke-width="1.5" stroke-linecap="round"/>
<path d="M8.99994 1.5H5.6041C4.70199 1.5 4.25093 1.5 3.88845 1.72402C3.52598 1.94805 3.32426 2.35149 2.92082 3.15836L1.99081 5.50929C1.66652 6.32905 1.37081 7.35952 2.05523 7.91517C2.31311 8.12454 2.64187 8.25 2.99994 8.25C3.82836 8.25 4.49994 7.57843 4.49994 6.75C4.49994 7.57843 5.17151 8.25 5.99994 8.25C6.82836 8.25 7.49994 7.57843 7.49994 6.75C7.49994 7.57843 8.17151 8.25 8.99994 8.25C9.82836 8.25 10.4999 7.57843 10.4999 6.75C10.4999 7.57843 11.1715 8.25 11.9999 8.25C12.8284 8.25 13.4999 7.57843 13.4999 6.75C13.4999 7.57843 14.1715 8.25 14.9999 8.25C15.358 8.25 15.6868 8.12453 15.9447 7.91516C16.6291 7.35952 16.3334 6.32905 16.0091 5.50929L15.0791 3.15836C14.6757 2.35148 14.474 1.94805 14.1115 1.72402C13.749 1.5 13.2979 1.5 12.3958 1.5H12" stroke="currentColor" stroke-width="1.5" stroke-linecap="round" stroke-linejoin="round"/>
</svg>
