<svg id="svg-smile" viewBox="0 0 89 89" fill="none" xmlns="http://www.w3.org/2000/svg">
<path d="M44.5 77.875C62.9325 77.875 77.875 62.9325 77.875 44.5C77.875 26.0675 62.9325 11.125 44.5 11.125C26.0675 11.125 11.125 26.0675 11.125 44.5C11.125 62.9325 26.0675 77.875 44.5 77.875Z" stroke="currentColor" stroke-width="4" stroke-linecap="round" stroke-linejoin="round"/>
<path d="M31.9844 41.7188C34.2884 41.7188 36.1562 39.8509 36.1562 37.5469C36.1562 35.2428 34.2884 33.375 31.9844 33.375C29.6803 33.375 27.8125 35.2428 27.8125 37.5469C27.8125 39.8509 29.6803 41.7188 31.9844 41.7188Z" fill="currentColor"/>
<path d="M52.8438 37.5469H61.1875" stroke="currentColor" stroke-width="4" stroke-linecap="round" stroke-linejoin="round"/>
<path d="M58.9626 52.8438C57.4923 55.3768 55.3826 57.4792 52.8445 58.9407C50.3063 60.4021 47.4289 61.1714 44.5001 61.1714C41.5713 61.1714 38.6939 60.4021 36.1557 58.9407C33.6176 57.4792 31.5079 55.3768 30.0376 52.8438" stroke="currentColor" stroke-width="4" stroke-linecap="round" stroke-linejoin="round"/>
</svg>
