<svg id="svg-star" viewBox="0 0 64 64" fill="none" xmlns="http://www.w3.org/2000/svg">
<path d="M30.0979 5.85409C30.6966 4.01147 33.3034 4.01148 33.9021 5.8541L38.7354 20.7295C39.0032 21.5535 39.7711 22.1115 40.6375 22.1115H56.2784C58.2159 22.1115 59.0214 24.5907 57.454 25.7295L44.8002 34.923C44.0993 35.4323 43.806 36.335 44.0737 37.1591L48.907 52.0344C49.5057 53.8771 47.3968 55.4093 45.8293 54.2705L33.1756 45.077C32.4746 44.5677 31.5254 44.5677 30.8244 45.077L18.1707 54.2705C16.6032 55.4093 14.4943 53.8771 15.093 52.0344L19.9263 37.1591C20.194 36.335 19.9007 35.4323 19.1997 34.923L6.54598 25.7295C4.97855 24.5907 5.78411 22.1115 7.72156 22.1115H23.3625C24.2289 22.1115 24.9968 21.5535 25.2646 20.7295L30.0979 5.85409Z" fill="currentColor"/>
</svg>
