<svg id="svg-time" viewBox="0 0 22 22" fill="none" xmlns="http://www.w3.org/2000/svg">
<path d="M22 8.70281H13.7128L17.0619 5.25591C13.725 1.95569 8.32241 1.83346 4.98552 5.13368C1.64862 8.44613 1.64862 13.7876 4.98552 17.1123C8.32241 20.4125 13.725 20.4125 17.0619 17.1123C18.7242 15.4622 19.5554 13.5431 19.5554 11.123H22C22 13.5431 20.9244 16.6845 18.7731 18.8113C14.4828 23.0649 7.51569 23.0649 3.2254 18.8113C-1.05267 14.5699 -1.08934 7.67607 3.20095 3.43468C7.49124 -0.806721 14.3728 -0.806721 18.6631 3.43468L22 0V8.70281ZM11.6104 6.11152V11.3063L15.8885 13.8487L15.0084 15.3277L9.77695 12.223V6.11152H11.6104Z" fill="currentColor"/>
</svg>
