<svg id="svg-watch" viewBox="0 0 20 20" fill="none" xmlns="http://www.w3.org/2000/svg">
<path d="M10 7.2C10.7233 7.2 11.417 7.495 11.9285 8.0201C12.4399 8.5452 12.7273 9.25739 12.7273 10C12.7273 10.7426 12.4399 11.4548 11.9285 11.9799C11.417 12.505 10.7233 12.8 10 12.8C9.27668 12.8 8.58299 12.505 8.07153 11.9799C7.56006 11.4548 7.27273 10.7426 7.27273 10C7.27273 9.25739 7.56006 8.5452 8.07153 8.0201C8.58299 7.495 9.27668 7.2 10 7.2ZM10 3C14.5455 3 18.4273 5.90267 20 10C18.4273 14.0973 14.5455 17 10 17C5.45455 17 1.57273 14.0973 0 10C1.57273 5.90267 5.45455 3 10 3ZM1.98182 10C3.48182 13.136 6.58182 15.1333 10 15.1333C13.4182 15.1333 16.5182 13.136 18.0182 10C16.5182 6.864 13.4182 4.86667 10 4.86667C6.58182 4.86667 3.48182 6.864 1.98182 10Z" fill="currentColor"/>
</svg>
