<svg id="svg-whatsapp" viewBox="0 0 16 16" fill="currentColor" xmlns="http://www.w3.org/2000/svg">
<path fill-rule="evenodd" clip-rule="evenodd" d="M8.14398 0C3.80988 0 0.287956 3.48558 0.287956 7.7913C0.287956 9.26316 0.701431 10.6398 1.41763 11.8188L0 16L4.34887 14.616C5.47116 15.2311 6.77065 15.5826 8.14398 15.5826C12.4855 15.5826 16 12.097 16 7.7913C16 3.48558 12.4855 0 8.14398 0V0ZM8.14398 14.2792C6.81495 14.2792 5.58191 13.8838 4.54822 13.2101L2.03046 14.0082L2.85002 11.5991C2.06737 10.5227 1.60222 9.2119 1.60222 7.7913C1.60222 4.21785 4.54084 1.30343 8.14398 1.30343C11.7545 1.30343 14.6857 4.21785 14.6857 7.7913C14.6857 11.3721 11.7545 14.2792 8.14398 14.2792ZM11.8283 9.56339C11.629 9.45355 10.6617 8.94096 10.4845 8.86774C10.3 8.79451 10.1671 8.75057 10.0268 8.94828C9.88648 9.13867 9.48777 9.57803 9.36225 9.70252C9.24412 9.83433 9.12598 9.84165 8.92663 9.73913C8.72727 9.62929 8.09229 9.39497 7.35395 8.69199C6.77803 8.14279 6.39409 7.47643 6.29073 7.2714C6.17997 7.06636 6.29072 6.96385 6.39409 6.86865C6.4827 6.78078 6.60083 6.64165 6.7042 6.53181C6.80757 6.42197 6.84449 6.34142 6.91832 6.20961C6.99216 6.0778 6.96262 5.96064 6.91832 5.85812C6.86664 5.75561 6.50485 4.76705 6.34979 4.35698C6.20212 3.95423 6.0323 4.01282 5.91417 4.01282C5.79603 4.00549 5.66313 3.98352 5.53023 3.98352C5.39732 3.9762 5.17582 4.02014 4.98385 4.21053C4.79188 4.40092 4.26027 4.86224 4.22335 5.84348C4.18643 6.81739 4.86571 7.7913 4.9617 7.93044C5.05768 8.06224 6.26857 10.1858 8.27688 11.0572C10.2852 11.9286 10.2926 11.665 10.6617 11.643C11.0309 11.6284 11.8653 11.211 12.0498 10.7497C12.2344 10.2957 12.2492 9.89291 12.2049 9.81236C12.1606 9.72449 12.0277 9.67323 11.8283 9.56339V9.56339Z" />
</svg>
